<svg xmlns="http://www.w3.org/2000/svg" width="283.465" height="113.386" viewBox="0 0 283.465 113.386">
  <path id="Pfad_1" data-name="Pfad 1" d="M58.092,29.626,39.385,52.85l14.3,11.5-6.912,8.6L49,74.73l8.7-10.819L43.4,52.416l16.914-21ZM22.246,54.655l2.224,1.788L68.419,1.788,66.195,0ZM46.757,63.2,22.314,93.6l2.224,1.789,24.444-30.4ZM27.01,58.488l4.783,3.847L2.345,98.92l2.223,1.791L35.805,61.9l-4.784-3.847L64.973,15.824l-2.224-1.788ZM92.764,44.42H86.579l-10.7,9.386V44.42h-4.6V63.932h4.6V58.513l5.035-4.241,6.732,9.66h5.472L84.253,51.781ZM23.26,63.141,9.347,80.455l2.225,1.788L27.272,62.7l-9.525-7.658L46,19.908,43.776,18.12,13.735,55.481ZM37.274,55.5l-1.788,2.225,4.754,3.822L0,111.6l2.224,1.787L44.252,61.114ZM18.857,63.614,9.233,55.878l8.316-10.342-2.224-1.788L5.221,56.312l11.848,9.527ZM178.934,52H167.578V44.42h-4.6V63.932h4.6V56.379h11.356v7.553h4.543V44.42h-4.543Zm50.309,5.911-.164-.246L217.23,44.42h-4.6V63.932h4.433V50.276l.191.274,11.986,13.382h4.406V44.42h-4.406ZM195.565,44.42l-9.878,19.512h4.952l2.026-4.242h10.808l2.08,4.242h4.9L200.409,44.42Zm-1.122,11.549,3.53-7.417,3.639,7.417ZM248.172,57.2h7.635c-.548,2.189-2.874,3.338-7.115,3.338-4.6,0-6.9-2.052-6.9-6.13v-.027c0-4.433,2.626-6.321,7.142-6.321,3.695,0,5.528,1.094,5.965,3.2h5.254c-.875-5.117-5.062-7.334-11.356-7.334-6.814,0-11.739,3.831-11.739,10.371v.137c0,7.005,4.4,10.043,10.808,10.043,4.872,0,7.773-2.025,8.347-5.883l.273,5.336H260.3V53.4H248.172Zm-99.633,3.12c-4.46,0-7.005-1.834-7.005-5.993v-.055c0-4.433,2.709-6.212,7.2-6.212,3.8,0,5.883,1.5,6.376,4.078h4.953c-1.1-5.583-5.391-8.21-11.356-8.21-6.951,0-11.9,3.776-11.9,10.317v.136c0,7.143,4.515,10.1,11.438,10.1,7.444,0,11.084-3.393,11.931-8.839h-5.007C154.724,58.623,152.863,60.32,148.539,60.32ZM132.51,44.42l-6.13,7.772-5.664-7.772h-5.637l8.811,11.494v8.018h4.789V56L138.12,44.42ZM268.661,59.936V56.078H280.7V52.22H268.661V48.279H282.89V44.42H264.255V63.932h19.21v-4ZM99.57,56.078h12.04V52.22H99.57V48.279H113.8V44.42H95.164V63.932h19.21v-4H99.57Z" fill="#fff"/>
</svg>
