<svg width="1293" height="759" xmlns="http://www.w3.org/2000/svg">
    <g fill-rule="nonzero" fill="none">
        <path d="M380.1 758.4C170.7 758.4.9 588.6.9 379.2.9 169.8 170.7 0 380.1 0c209.4 0 379.2 169.8 379.2 379.2 0 209.4-169.7 379.2-379.2 379.2Z" fill="#ffffff"/>
        <path fill="#666" d="M355.8 290.8h753.7V456H355.8z"/>
        <g fill="#FFF">
            <path d="M381.7 423.7v-96.6h37.7c27.6 0 43.6 21 43.6 48.5 0 27.3-16 48.1-43.6 48.1h-37.7Zm17.9-16.4h19.8c17.1 0 25.7-14.3 25.7-31.7 0-17.5-8.6-32.1-25.7-32.1h-19.8v63.8ZM486.7 327.1h59.7v16h-41.9v25.1h36.7V384h-36.7v23.7h43.3v16h-61.1zM652.2 405.5c-8.4 11.9-22.6 19.6-39.3 19.6-27.5 0-48.7-22.3-48.7-49.5 0-27.5 21.2-49.6 48.7-49.6 16.4 0 30.4 7.4 38.8 19.1l-14.3 10.2c-5.6-7.3-14.3-12.3-24.5-12.3-17.5 0-30.7 14.6-30.7 32.7 0 18 13.2 32.5 30.7 32.5 10.4 0 19.5-5.2 25.1-13l14.2 10.3ZM671.8 327.1h18v80.6h37.3v16h-55.3zM803.7 400.3h-36l-8.8 23.4h-19.1l36.2-96.6h19.4l36.2 96.6h-18.9l-9-23.4Zm-30-15.7h24.1l-12.2-36.9-11.9 36.9ZM917.7 423.7h-21.6l-22.7-34.4H866v34.4h-18v-96.6h38.7c21.3 0 30.9 15.6 30.9 31.3 0 13.9-7.4 27.5-24.5 30.3l24.6 35Zm-51.8-80.6v30.3h19.4c9.4 0 13.6-7.9 13.6-15 0-7-4.1-15.3-13-15.3h-20ZM941 327.1h59.7v16h-41.9v25.1h36.7V384h-36.7v23.7h43.3v16H941zM1038.4 395.5c.3 7 6.3 13.6 16.7 13.6 9.7 0 15.6-5 16-11.6.4-6.5-3.9-10.7-13.3-13.2l-11.9-3.1c-21-6.2-24.4-18.4-24.4-26.9 0-17 14.7-28.3 32.5-28.3 18.2 0 32.1 11.1 32.1 29.2h-18c0-7.6-5.5-12.6-14.4-12.6-8 0-14.4 4.5-14.4 11.4 0 3.1 1.1 8.3 11.5 11.1l11.9 3.5c21.6 5.9 27.2 18.1 26.4 29.4-.8 17.4-16.3 27.3-33.9 27.3-20.6 0-34.6-13.2-34.6-29.7h17.8v-.1Z"/></g><path fill="#666" d="m365.057 654.57 14.398-164.573 912.62 79.844-14.4 164.573z"/><g fill="#FFF"><path d="m402 528.4 59.5 5.2-1.4 15.9-41.8-3.7-2.2 25 36.6 3.2-1.4 15.8-36.6-3.2-2.1 23.6 43.2 3.8-1.4 15.9-60.9-5.3zM569.9 543.1l15.4 1.3 3.3 97.3-17.9-1.6-1.8-64.8-29.8 51-14.2-1.2-20.6-55.4-13.2 63.5-17.9-1.6 20.3-95.2 15.1 1.3 25 67.8zM620.8 547.5l59.5 5.2-1.4 15.9-41.8-3.7-2.2 25 36.6 3.2-1.4 15.8-36.6-3.2-2.1 23.6 43.2 3.8-1.4 15.9-60.9-5.3zM767 657.3l-21.5-1.9-19.6-36.2-7.4-.6-3 34.2-17.9-1.6L706 555l38.6 3.4c21.2 1.9 29.4 18.2 28 33.8-1.2 13.8-9.8 26.7-27.1 28l21.5 37.1Zm-44.5-84.8-2.6 30.2 19.3 1.7c9.4.8 14.2-6.6 14.9-13.8.6-7-2.7-15.6-11.7-16.4l-19.9-1.7ZM860.4 593.7c-5.1-6.2-12.3-10.5-21-11.3-17.6-1.5-32.4 11.9-34 30-1.6 17.9 10.7 34 28.3 35.6 12.9 1.1 26.2-5.4 27.7-17.7L835 628l1.3-14.7 46.9 4.1c-3.1 35.2-23.3 49.5-51 47.1-27.5-2.4-47.1-26.5-44.7-53.6 2.4-27.4 25.8-47.6 53.4-45.2 14.1 1.2 26 8.1 33.6 17.7l-14.1 10.3ZM908.1 572.6l59.5 5.2-1.4 15.9-41.8-3.7-2.2 25 36.6 3.2-1.4 15.8-36.6-3.2-2.1 23.6 43.2 3.8-1.4 15.9-60.9-5.3zM1056.2 682.6l-16.3-1.4-31.6-66.5-5.5 63.3-17.7-1.6 8.4-96.3 16.6 1.5 31.3 65.8 5.5-62.6 17.9 1.6zM1168.1 674.1c-9.4 11.1-24.2 17.6-40.8 16.1-27.4-2.4-46.5-26.5-44.2-53.6 2.4-27.4 25.4-47.6 52.8-45.2 16.3 1.4 29.7 10.1 37 22.4l-15.1 8.9c-5-7.8-13.2-13.5-23.4-14.4-17.5-1.5-31.9 11.9-33.4 29.9-1.6 17.9 10.3 33.6 27.8 35.1 10.3.9 19.9-3.5 26.1-10.8l13.2 11.6ZM1209.3 696l3.8-43.9-32.3-55.6 21.2 1.9 21.5 39.2 28.2-34.8 21.4 1.9-41.8 49.4-3.8 43.6z"/></g><path fill="#666" d="M316.937 92.44 806.77 49.587l14.399 164.572-489.832 42.855z"/><g fill="#FFF"><path d="m428.6 119 15.4-1.3 20.2 95.2-17.9 1.6-13-63.5-20.5 55.4-14.2 1.2-29.9-51-1.9 64.8-17.9 1.6 3.5-97.3 15.1-1.3 36.4 62.4zM538.4 172.2l-5.5-62.3 17.9-1.6 5.5 62.3c1.9 21.5-13.8 36.8-33.4 38.5-19.6 1.7-37.8-10.6-39.7-32.1l-5.5-62.3 18.2-1.6 5.5 62.3c1 11.2 10.3 17.7 20.1 16.8 9.7-.8 17.8-8.8 16.9-20ZM597.1 173c.9 7 7.5 13 17.8 12.1 9.6-.8 15.1-6.4 14.9-13-.1-6.5-4.8-10.3-14.4-12l-12.1-2c-21.5-4.3-25.9-16.2-26.7-24.7-1.5-16.9 12.2-29.5 29.9-31.1 18.2-1.6 33 8.2 34.5 26.3l-17.9 1.6c-.7-7.5-6.5-12.1-15.5-11.3-8 .7-14 5.7-13.4 12.6.3 3.1 1.8 8.1 12.4 10l12.2 2.5c22 4 28.7 15.7 28.8 27 .7 17.4-13.8 28.7-31.4 30.2-20.5 1.8-35.7-10.1-37.1-26.6l18-1.6ZM664.8 98.4l17.7-1.6 8.4 96.3-17.7 1.6zM799.7 165.2c-7.3 12.6-20.8 21.5-37.4 23-27.4 2.4-50.4-18-52.8-45.1-2.4-27.4 16.8-51.3 44.1-53.7 16.3-1.4 31 4.8 40.4 15.6l-13.4 11.4c-6.2-6.8-15.3-11-25.5-10.2-17.5 1.5-29.3 17.2-27.7 35.2 1.6 17.9 16 31.3 33.4 29.7 10.3-.9 19-6.9 23.9-15.2l15 9.3Z"/>
    </g>
    </g>
</svg>